<mxfile host="app.diagrams.net" modified="2023-04-12T06:24:24.105Z" agent="Mozilla/5.0 (Windows NT 10.0; Win64; x64) AppleWebKit/537.36 (KHTML, like Gecko) Chrome/111.0.0.0 Safari/537.36" etag="ik3LHc7HQ5Ty5LpqD-HC" version="21.1.6" type="github">
  <diagram id="6a731a19-8d31-9384-78a2-239565b7b9f0" name="Page-1">
    <mxGraphModel dx="3327" dy="549" grid="1" gridSize="10" guides="1" tooltips="1" connect="1" arrows="1" fold="1" page="1" pageScale="1" pageWidth="1169" pageHeight="827" background="none" math="0" shadow="0">
      <root>
        <mxCell id="0" />
        <mxCell id="1" parent="0" />
        <mxCell id="2" value="start" style="shape=mxgraph.flowchart.terminator;strokeWidth=2;gradientColor=none;gradientDirection=north;fontStyle=0;html=1;" parent="1" vertex="1">
          <mxGeometry x="260" y="60" width="120" height="30" as="geometry" />
        </mxCell>
        <mxCell id="7" style="fontStyle=1;strokeColor=#003366;strokeWidth=1;html=1;entryX=0.5;entryY=0;entryDx=0;entryDy=0;" parent="1" source="2" target="uXSJqWY1-XG1KT0R3jyK-56" edge="1">
          <mxGeometry relative="1" as="geometry">
            <mxPoint x="320" y="130" as="targetPoint" />
          </mxGeometry>
        </mxCell>
        <mxCell id="uXSJqWY1-XG1KT0R3jyK-58" style="edgeStyle=orthogonalEdgeStyle;rounded=0;orthogonalLoop=1;jettySize=auto;html=1;exitX=0.5;exitY=1;exitDx=0;exitDy=0;entryX=0.5;entryY=0;entryDx=0;entryDy=0;" edge="1" parent="1" source="uXSJqWY1-XG1KT0R3jyK-56" target="uXSJqWY1-XG1KT0R3jyK-57">
          <mxGeometry relative="1" as="geometry" />
        </mxCell>
        <mxCell id="uXSJqWY1-XG1KT0R3jyK-56" value="found_mwe = [], mwe_arr_index = [],&lt;br&gt;base_url = &#39;http://172.104.34.197/nlp-web-demo/process?text=&lt;span style=&quot;background-color: initial;&quot;&gt;&#39;, &lt;br&gt;res, soup, res_arr, word_list, con_wrd, mwe_node_list&lt;/span&gt;" style="shape=process;whiteSpace=wrap;html=1;backgroundOutline=1;" vertex="1" parent="1">
          <mxGeometry x="90" y="120" width="460" height="50" as="geometry" />
        </mxCell>
        <mxCell id="uXSJqWY1-XG1KT0R3jyK-60" value="" style="edgeStyle=orthogonalEdgeStyle;rounded=0;orthogonalLoop=1;jettySize=auto;html=1;" edge="1" parent="1" source="uXSJqWY1-XG1KT0R3jyK-57" target="uXSJqWY1-XG1KT0R3jyK-59">
          <mxGeometry relative="1" as="geometry" />
        </mxCell>
        <mxCell id="uXSJqWY1-XG1KT0R3jyK-57" value="mwe_trie, word_trie, df, txt, base_url" style="shape=parallelogram;perimeter=parallelogramPerimeter;whiteSpace=wrap;html=1;fixedSize=1;" vertex="1" parent="1">
          <mxGeometry x="225" y="190" width="190" height="30" as="geometry" />
        </mxCell>
        <mxCell id="uXSJqWY1-XG1KT0R3jyK-62" value="" style="edgeStyle=orthogonalEdgeStyle;rounded=0;orthogonalLoop=1;jettySize=auto;html=1;" edge="1" parent="1" source="uXSJqWY1-XG1KT0R3jyK-59" target="uXSJqWY1-XG1KT0R3jyK-61">
          <mxGeometry relative="1" as="geometry" />
        </mxCell>
        <mxCell id="uXSJqWY1-XG1KT0R3jyK-59" value="res = requests.get(base_url + txt)" style="whiteSpace=wrap;html=1;" vertex="1" parent="1">
          <mxGeometry x="220" y="250" width="200" height="20" as="geometry" />
        </mxCell>
        <mxCell id="uXSJqWY1-XG1KT0R3jyK-64" style="edgeStyle=orthogonalEdgeStyle;rounded=0;orthogonalLoop=1;jettySize=auto;html=1;exitX=1;exitY=0.5;exitDx=0;exitDy=0;entryX=0.5;entryY=0;entryDx=0;entryDy=0;" edge="1" parent="1" source="uXSJqWY1-XG1KT0R3jyK-61" target="uXSJqWY1-XG1KT0R3jyK-63">
          <mxGeometry relative="1" as="geometry" />
        </mxCell>
        <mxCell id="uXSJqWY1-XG1KT0R3jyK-70" value="" style="edgeStyle=orthogonalEdgeStyle;rounded=0;orthogonalLoop=1;jettySize=auto;html=1;entryX=0.5;entryY=0;entryDx=0;entryDy=0;" edge="1" parent="1" source="uXSJqWY1-XG1KT0R3jyK-61" target="uXSJqWY1-XG1KT0R3jyK-69">
          <mxGeometry relative="1" as="geometry">
            <Array as="points">
              <mxPoint x="200" y="335" />
            </Array>
          </mxGeometry>
        </mxCell>
        <mxCell id="uXSJqWY1-XG1KT0R3jyK-61" value="res.status_code != 200" style="rhombus;whiteSpace=wrap;html=1;" vertex="1" parent="1">
          <mxGeometry x="245" y="300" width="150" height="70" as="geometry" />
        </mxCell>
        <mxCell id="uXSJqWY1-XG1KT0R3jyK-66" style="edgeStyle=orthogonalEdgeStyle;rounded=0;orthogonalLoop=1;jettySize=auto;html=1;exitX=0.5;exitY=1;exitDx=0;exitDy=0;" edge="1" parent="1" source="uXSJqWY1-XG1KT0R3jyK-63" target="uXSJqWY1-XG1KT0R3jyK-65">
          <mxGeometry relative="1" as="geometry" />
        </mxCell>
        <mxCell id="uXSJqWY1-XG1KT0R3jyK-63" value="res.status_code" style="shape=dataStorage;whiteSpace=wrap;html=1;fixedSize=1;" vertex="1" parent="1">
          <mxGeometry x="410" y="360" width="130" height="20" as="geometry" />
        </mxCell>
        <mxCell id="uXSJqWY1-XG1KT0R3jyK-65" value="return found_mwe" style="shape=mxgraph.flowchart.terminator;strokeWidth=2;gradientColor=none;gradientDirection=north;fontStyle=0;html=1;" vertex="1" parent="1">
          <mxGeometry x="415" y="400" width="120" height="30" as="geometry" />
        </mxCell>
        <mxCell id="uXSJqWY1-XG1KT0R3jyK-67" value="No" style="text;html=1;align=center;verticalAlign=middle;resizable=0;points=[];autosize=1;strokeColor=none;fillColor=none;" vertex="1" parent="1">
          <mxGeometry x="415" y="310" width="40" height="30" as="geometry" />
        </mxCell>
        <mxCell id="uXSJqWY1-XG1KT0R3jyK-73" value="" style="edgeStyle=orthogonalEdgeStyle;rounded=0;orthogonalLoop=1;jettySize=auto;html=1;" edge="1" parent="1" source="uXSJqWY1-XG1KT0R3jyK-69" target="uXSJqWY1-XG1KT0R3jyK-72">
          <mxGeometry relative="1" as="geometry">
            <Array as="points">
              <mxPoint x="200" y="520" />
              <mxPoint x="200" y="520" />
            </Array>
          </mxGeometry>
        </mxCell>
        <mxCell id="uXSJqWY1-XG1KT0R3jyK-69" value="soup = BeautifulSoup(res.text,, &#39;html.parser&#39;)" style="whiteSpace=wrap;html=1;" vertex="1" parent="1">
          <mxGeometry x="110" y="380" width="180" height="30" as="geometry" />
        </mxCell>
        <mxCell id="uXSJqWY1-XG1KT0R3jyK-71" value="Yes" style="text;html=1;align=center;verticalAlign=middle;resizable=0;points=[];autosize=1;strokeColor=none;fillColor=none;" vertex="1" parent="1">
          <mxGeometry x="174" y="310" width="40" height="30" as="geometry" />
        </mxCell>
        <mxCell id="uXSJqWY1-XG1KT0R3jyK-75" value="" style="edgeStyle=orthogonalEdgeStyle;rounded=0;orthogonalLoop=1;jettySize=auto;html=1;" edge="1" parent="1" source="uXSJqWY1-XG1KT0R3jyK-72" target="uXSJqWY1-XG1KT0R3jyK-74">
          <mxGeometry relative="1" as="geometry" />
        </mxCell>
        <mxCell id="uXSJqWY1-XG1KT0R3jyK-72" value="res_arr = json.loads(soup.text)" style="whiteSpace=wrap;html=1;" vertex="1" parent="1">
          <mxGeometry x="110" y="420" width="180" height="20" as="geometry" />
        </mxCell>
        <mxCell id="uXSJqWY1-XG1KT0R3jyK-79" value="" style="edgeStyle=orthogonalEdgeStyle;rounded=0;orthogonalLoop=1;jettySize=auto;html=1;" edge="1" parent="1" source="uXSJqWY1-XG1KT0R3jyK-74" target="uXSJqWY1-XG1KT0R3jyK-78">
          <mxGeometry relative="1" as="geometry" />
        </mxCell>
        <mxCell id="uXSJqWY1-XG1KT0R3jyK-88" value="" style="edgeStyle=orthogonalEdgeStyle;rounded=0;orthogonalLoop=1;jettySize=auto;html=1;entryX=0.5;entryY=0;entryDx=0;entryDy=0;" edge="1" parent="1" source="uXSJqWY1-XG1KT0R3jyK-74" target="uXSJqWY1-XG1KT0R3jyK-87">
          <mxGeometry relative="1" as="geometry">
            <Array as="points">
              <mxPoint x="-30" y="510" />
            </Array>
          </mxGeometry>
        </mxCell>
        <mxCell id="uXSJqWY1-XG1KT0R3jyK-74" value="sentence == last of res_arr" style="rhombus;whiteSpace=wrap;html=1;" vertex="1" parent="1">
          <mxGeometry x="105" y="470" width="190" height="80" as="geometry" />
        </mxCell>
        <mxCell id="uXSJqWY1-XG1KT0R3jyK-83" style="edgeStyle=orthogonalEdgeStyle;rounded=0;orthogonalLoop=1;jettySize=auto;html=1;exitX=0;exitY=0.5;exitDx=0;exitDy=0;entryX=0.5;entryY=0;entryDx=0;entryDy=0;" edge="1" parent="1" source="uXSJqWY1-XG1KT0R3jyK-78" target="uXSJqWY1-XG1KT0R3jyK-74">
          <mxGeometry relative="1" as="geometry">
            <Array as="points">
              <mxPoint x="100" y="625" />
              <mxPoint x="100" y="740" />
              <mxPoint x="310" y="740" />
              <mxPoint x="310" y="470" />
            </Array>
          </mxGeometry>
        </mxCell>
        <mxCell id="uXSJqWY1-XG1KT0R3jyK-111" style="edgeStyle=orthogonalEdgeStyle;rounded=0;orthogonalLoop=1;jettySize=auto;html=1;exitX=0.5;exitY=1;exitDx=0;exitDy=0;entryX=0.5;entryY=0;entryDx=0;entryDy=0;" edge="1" parent="1" source="uXSJqWY1-XG1KT0R3jyK-78" target="uXSJqWY1-XG1KT0R3jyK-80">
          <mxGeometry relative="1" as="geometry" />
        </mxCell>
        <mxCell id="uXSJqWY1-XG1KT0R3jyK-78" value="word == last of sentence" style="rhombus;whiteSpace=wrap;html=1;" vertex="1" parent="1">
          <mxGeometry x="137.5" y="585" width="125" height="80" as="geometry" />
        </mxCell>
        <mxCell id="uXSJqWY1-XG1KT0R3jyK-82" style="edgeStyle=orthogonalEdgeStyle;rounded=0;orthogonalLoop=1;jettySize=auto;html=1;exitX=0.5;exitY=1;exitDx=0;exitDy=0;entryX=0.5;entryY=0;entryDx=0;entryDy=0;" edge="1" parent="1" source="uXSJqWY1-XG1KT0R3jyK-80" target="uXSJqWY1-XG1KT0R3jyK-78">
          <mxGeometry relative="1" as="geometry">
            <mxPoint x="140" y="770" as="targetPoint" />
            <Array as="points">
              <mxPoint x="202" y="705" />
              <mxPoint x="200" y="705" />
              <mxPoint x="200" y="730" />
              <mxPoint x="280" y="730" />
              <mxPoint x="280" y="585" />
            </Array>
          </mxGeometry>
        </mxCell>
        <mxCell id="uXSJqWY1-XG1KT0R3jyK-80" value="word_list.append(word)" style="whiteSpace=wrap;html=1;" vertex="1" parent="1">
          <mxGeometry x="134" y="700" width="135" height="20" as="geometry" />
        </mxCell>
        <mxCell id="uXSJqWY1-XG1KT0R3jyK-84" value="No" style="text;html=1;align=center;verticalAlign=middle;resizable=0;points=[];autosize=1;strokeColor=none;fillColor=none;" vertex="1" parent="1">
          <mxGeometry x="190" y="550" width="40" height="30" as="geometry" />
        </mxCell>
        <mxCell id="uXSJqWY1-XG1KT0R3jyK-85" value="No" style="text;html=1;align=center;verticalAlign=middle;resizable=0;points=[];autosize=1;strokeColor=none;fillColor=none;" vertex="1" parent="1">
          <mxGeometry x="191" y="665" width="40" height="30" as="geometry" />
        </mxCell>
        <mxCell id="uXSJqWY1-XG1KT0R3jyK-86" value="Yes" style="text;html=1;align=center;verticalAlign=middle;resizable=0;points=[];autosize=1;strokeColor=none;fillColor=none;" vertex="1" parent="1">
          <mxGeometry x="105" y="601" width="40" height="30" as="geometry" />
        </mxCell>
        <mxCell id="uXSJqWY1-XG1KT0R3jyK-113" style="edgeStyle=orthogonalEdgeStyle;rounded=0;orthogonalLoop=1;jettySize=auto;html=1;exitX=0.5;exitY=1;exitDx=0;exitDy=0;entryX=0.5;entryY=0;entryDx=0;entryDy=0;" edge="1" parent="1" source="uXSJqWY1-XG1KT0R3jyK-87" target="uXSJqWY1-XG1KT0R3jyK-90">
          <mxGeometry relative="1" as="geometry" />
        </mxCell>
        <mxCell id="uXSJqWY1-XG1KT0R3jyK-87" value="con_wrd = word_list.copy()" style="whiteSpace=wrap;html=1;" vertex="1" parent="1">
          <mxGeometry x="-110" y="540" width="160" height="20" as="geometry" />
        </mxCell>
        <mxCell id="uXSJqWY1-XG1KT0R3jyK-89" value="Yes" style="text;html=1;align=center;verticalAlign=middle;resizable=0;points=[];autosize=1;strokeColor=none;fillColor=none;" vertex="1" parent="1">
          <mxGeometry x="30" y="486" width="40" height="30" as="geometry" />
        </mxCell>
        <mxCell id="uXSJqWY1-XG1KT0R3jyK-93" value="" style="edgeStyle=orthogonalEdgeStyle;rounded=0;orthogonalLoop=1;jettySize=auto;html=1;" edge="1" parent="1" source="uXSJqWY1-XG1KT0R3jyK-90" target="uXSJqWY1-XG1KT0R3jyK-92">
          <mxGeometry relative="1" as="geometry" />
        </mxCell>
        <mxCell id="uXSJqWY1-XG1KT0R3jyK-90" value="mwe_node_list = &lt;b&gt;mwe_trie.search(list(map(lambda x: x[&#39;word&#39;], con_wrd)))&lt;/b&gt;" style="whiteSpace=wrap;html=1;" vertex="1" parent="1">
          <mxGeometry x="-145" y="576" width="230" height="60" as="geometry" />
        </mxCell>
        <mxCell id="uXSJqWY1-XG1KT0R3jyK-95" value="" style="edgeStyle=orthogonalEdgeStyle;rounded=0;orthogonalLoop=1;jettySize=auto;html=1;" edge="1" parent="1" source="uXSJqWY1-XG1KT0R3jyK-92" target="uXSJqWY1-XG1KT0R3jyK-94">
          <mxGeometry relative="1" as="geometry" />
        </mxCell>
        <mxCell id="uXSJqWY1-XG1KT0R3jyK-92" value="mwe_node == last of mwe_node_list" style="rhombus;whiteSpace=wrap;html=1;" vertex="1" parent="1">
          <mxGeometry x="-120" y="655" width="180" height="80" as="geometry" />
        </mxCell>
        <mxCell id="uXSJqWY1-XG1KT0R3jyK-97" value="" style="edgeStyle=orthogonalEdgeStyle;rounded=0;orthogonalLoop=1;jettySize=auto;html=1;" edge="1" parent="1" source="uXSJqWY1-XG1KT0R3jyK-94" target="uXSJqWY1-XG1KT0R3jyK-96">
          <mxGeometry relative="1" as="geometry" />
        </mxCell>
        <mxCell id="uXSJqWY1-XG1KT0R3jyK-94" value="mwe_id == last of mwe_node[&#39;id&#39;]" style="rhombus;whiteSpace=wrap;html=1;" vertex="1" parent="1">
          <mxGeometry x="-108.5" y="775" width="157" height="80" as="geometry" />
        </mxCell>
        <mxCell id="uXSJqWY1-XG1KT0R3jyK-101" value="" style="edgeStyle=orthogonalEdgeStyle;rounded=0;orthogonalLoop=1;jettySize=auto;html=1;" edge="1" parent="1" source="uXSJqWY1-XG1KT0R3jyK-96" target="uXSJqWY1-XG1KT0R3jyK-100">
          <mxGeometry relative="1" as="geometry" />
        </mxCell>
        <mxCell id="uXSJqWY1-XG1KT0R3jyK-96" value="row = df.loc[df[&#39;id&#39;] == mwe_id].values.tolist()[0]" style="whiteSpace=wrap;html=1;" vertex="1" parent="1">
          <mxGeometry x="-123.5" y="890" width="187" height="30" as="geometry" />
        </mxCell>
        <mxCell id="uXSJqWY1-XG1KT0R3jyK-98" value="No" style="text;html=1;align=center;verticalAlign=middle;resizable=0;points=[];autosize=1;strokeColor=none;fillColor=none;" vertex="1" parent="1">
          <mxGeometry x="-40" y="855" width="40" height="30" as="geometry" />
        </mxCell>
        <mxCell id="uXSJqWY1-XG1KT0R3jyK-99" value="No" style="text;html=1;align=center;verticalAlign=middle;resizable=0;points=[];autosize=1;strokeColor=none;fillColor=none;" vertex="1" parent="1">
          <mxGeometry x="-40" y="740" width="40" height="30" as="geometry" />
        </mxCell>
        <mxCell id="uXSJqWY1-XG1KT0R3jyK-103" value="" style="edgeStyle=orthogonalEdgeStyle;rounded=0;orthogonalLoop=1;jettySize=auto;html=1;" edge="1" parent="1" source="uXSJqWY1-XG1KT0R3jyK-100" target="uXSJqWY1-XG1KT0R3jyK-102">
          <mxGeometry relative="1" as="geometry" />
        </mxCell>
        <mxCell id="uXSJqWY1-XG1KT0R3jyK-100" value="ner = row[2].lower()" style="whiteSpace=wrap;html=1;" vertex="1" parent="1">
          <mxGeometry x="-123.5" y="945" width="187" height="20" as="geometry" />
        </mxCell>
        <mxCell id="uXSJqWY1-XG1KT0R3jyK-105" value="" style="edgeStyle=orthogonalEdgeStyle;rounded=0;orthogonalLoop=1;jettySize=auto;html=1;" edge="1" parent="1" source="uXSJqWY1-XG1KT0R3jyK-102" target="uXSJqWY1-XG1KT0R3jyK-104">
          <mxGeometry relative="1" as="geometry" />
        </mxCell>
        <mxCell id="uXSJqWY1-XG1KT0R3jyK-102" value="undes = row[5].lower()" style="whiteSpace=wrap;html=1;" vertex="1" parent="1">
          <mxGeometry x="-123.5" y="990" width="187" height="20" as="geometry" />
        </mxCell>
        <mxCell id="uXSJqWY1-XG1KT0R3jyK-107" value="" style="edgeStyle=orthogonalEdgeStyle;rounded=0;orthogonalLoop=1;jettySize=auto;html=1;" edge="1" parent="1" source="uXSJqWY1-XG1KT0R3jyK-104" target="uXSJqWY1-XG1KT0R3jyK-106">
          <mxGeometry relative="1" as="geometry" />
        </mxCell>
        <mxCell id="uXSJqWY1-XG1KT0R3jyK-104" value="posTag = row[4].lower()" style="whiteSpace=wrap;html=1;" vertex="1" parent="1">
          <mxGeometry x="-123.5" y="1029.25" width="187" height="21.5" as="geometry" />
        </mxCell>
        <mxCell id="uXSJqWY1-XG1KT0R3jyK-109" value="" style="edgeStyle=orthogonalEdgeStyle;rounded=0;orthogonalLoop=1;jettySize=auto;html=1;" edge="1" parent="1" source="uXSJqWY1-XG1KT0R3jyK-106" target="uXSJqWY1-XG1KT0R3jyK-108">
          <mxGeometry relative="1" as="geometry" />
        </mxCell>
        <mxCell id="uXSJqWY1-XG1KT0R3jyK-106" value="res_mwe =&amp;nbsp;ner.lower().replace(&#39; &#39; + undes + &#39; &#39;)" style="whiteSpace=wrap;html=1;" vertex="1" parent="1">
          <mxGeometry x="-156" y="1070" width="252" height="20" as="geometry" />
        </mxCell>
        <mxCell id="uXSJqWY1-XG1KT0R3jyK-115" value="" style="edgeStyle=orthogonalEdgeStyle;rounded=0;orthogonalLoop=1;jettySize=auto;html=1;" edge="1" parent="1" source="uXSJqWY1-XG1KT0R3jyK-108" target="uXSJqWY1-XG1KT0R3jyK-114">
          <mxGeometry relative="1" as="geometry" />
        </mxCell>
        <mxCell id="uXSJqWY1-XG1KT0R3jyK-108" value="slt = res_mwe.lower().split(&#39; &#39;)" style="whiteSpace=wrap;html=1;" vertex="1" parent="1">
          <mxGeometry x="-116.5" y="1110" width="173" height="20" as="geometry" />
        </mxCell>
        <mxCell id="uXSJqWY1-XG1KT0R3jyK-117" value="" style="edgeStyle=orthogonalEdgeStyle;rounded=0;orthogonalLoop=1;jettySize=auto;html=1;" edge="1" parent="1" source="uXSJqWY1-XG1KT0R3jyK-114" target="uXSJqWY1-XG1KT0R3jyK-116">
          <mxGeometry relative="1" as="geometry" />
        </mxCell>
        <mxCell id="uXSJqWY1-XG1KT0R3jyK-114" value="len(slt) &amp;gt; 0 and &lt;br&gt;&lt;b&gt;is_match(slt, mwe_node[&#39;idx&#39;], con_wrd) &lt;/b&gt;&lt;br&gt;and mwe_node[&#39;idx&#39;] + 1 &amp;lt; len(con_wrd) &lt;br&gt;and con_wrd[mwe_node[&#39;idx&#39;] + 1][&#39;word&#39;] not in res_mwe.lower()" style="rhombus;whiteSpace=wrap;html=1;" vertex="1" parent="1">
          <mxGeometry x="-430" y="1160" width="800" height="115.5" as="geometry" />
        </mxCell>
        <mxCell id="uXSJqWY1-XG1KT0R3jyK-120" value="" style="edgeStyle=orthogonalEdgeStyle;rounded=0;orthogonalLoop=1;jettySize=auto;html=1;" edge="1" parent="1" source="uXSJqWY1-XG1KT0R3jyK-116" target="uXSJqWY1-XG1KT0R3jyK-119">
          <mxGeometry relative="1" as="geometry" />
        </mxCell>
        <mxCell id="uXSJqWY1-XG1KT0R3jyK-116" value="icon_wrd[mwe_node[&#39;idx&#39;] + 1][&#39;word&#39;].lower() == undes" style="rhombus;whiteSpace=wrap;html=1;" vertex="1" parent="1">
          <mxGeometry x="-360" y="1310" width="660" height="34.5" as="geometry" />
        </mxCell>
        <mxCell id="uXSJqWY1-XG1KT0R3jyK-118" value="Yes" style="text;html=1;align=center;verticalAlign=middle;resizable=0;points=[];autosize=1;strokeColor=none;fillColor=none;" vertex="1" parent="1">
          <mxGeometry x="-39" y="1275.5" width="40" height="30" as="geometry" />
        </mxCell>
        <mxCell id="uXSJqWY1-XG1KT0R3jyK-123" value="" style="edgeStyle=orthogonalEdgeStyle;rounded=0;orthogonalLoop=1;jettySize=auto;html=1;" edge="1" parent="1" source="uXSJqWY1-XG1KT0R3jyK-119" target="uXSJqWY1-XG1KT0R3jyK-122">
          <mxGeometry relative="1" as="geometry" />
        </mxCell>
        <mxCell id="uXSJqWY1-XG1KT0R3jyK-133" value="" style="edgeStyle=orthogonalEdgeStyle;rounded=0;orthogonalLoop=1;jettySize=auto;html=1;" edge="1" parent="1" source="uXSJqWY1-XG1KT0R3jyK-119" target="uXSJqWY1-XG1KT0R3jyK-132">
          <mxGeometry relative="1" as="geometry" />
        </mxCell>
        <mxCell id="uXSJqWY1-XG1KT0R3jyK-119" value="icon_wrd[mwe_node[&#39;idx&#39;] + 1][&#39;word&#39;].lower() == undes" style="rhombus;whiteSpace=wrap;html=1;" vertex="1" parent="1">
          <mxGeometry x="-360" y="1380" width="660" height="34.5" as="geometry" />
        </mxCell>
        <mxCell id="uXSJqWY1-XG1KT0R3jyK-121" value="Yes" style="text;html=1;align=center;verticalAlign=middle;resizable=0;points=[];autosize=1;strokeColor=none;fillColor=none;" vertex="1" parent="1">
          <mxGeometry x="-39" y="1343" width="40" height="30" as="geometry" />
        </mxCell>
        <mxCell id="uXSJqWY1-XG1KT0R3jyK-125" value="" style="edgeStyle=orthogonalEdgeStyle;rounded=0;orthogonalLoop=1;jettySize=auto;html=1;" edge="1" parent="1" source="uXSJqWY1-XG1KT0R3jyK-122" target="uXSJqWY1-XG1KT0R3jyK-124">
          <mxGeometry relative="1" as="geometry" />
        </mxCell>
        <mxCell id="uXSJqWY1-XG1KT0R3jyK-122" value="con_wrd[mwe_node[&#39;idx&#39;] + 1][&#39;lemma&#39;] = &#39;[&#39;+&#39;_&#39;.join(res_mwe.split(&#39; &#39;)) + &#39;_&#39; + con_wrd[mwe_node[&#39;idx&#39;] + 1][&#39;lemma&#39;].replace(&#39;[&#39;, &#39;&#39;)" style="whiteSpace=wrap;html=1;" vertex="1" parent="1">
          <mxGeometry x="-240" y="1445.75" width="420" height="28.25" as="geometry" />
        </mxCell>
        <mxCell id="uXSJqWY1-XG1KT0R3jyK-127" value="" style="edgeStyle=orthogonalEdgeStyle;rounded=0;orthogonalLoop=1;jettySize=auto;html=1;" edge="1" parent="1" source="uXSJqWY1-XG1KT0R3jyK-124" target="uXSJqWY1-XG1KT0R3jyK-126">
          <mxGeometry relative="1" as="geometry" />
        </mxCell>
        <mxCell id="uXSJqWY1-XG1KT0R3jyK-124" value="con_wrd[mwe_node[&#39;idx&#39;] + 1][&#39;posTag&#39;] = posTag" style="whiteSpace=wrap;html=1;" vertex="1" parent="1">
          <mxGeometry x="-240" y="1500" width="420" height="20" as="geometry" />
        </mxCell>
        <mxCell id="uXSJqWY1-XG1KT0R3jyK-129" value="" style="edgeStyle=orthogonalEdgeStyle;rounded=0;orthogonalLoop=1;jettySize=auto;html=1;" edge="1" parent="1" source="uXSJqWY1-XG1KT0R3jyK-126" target="uXSJqWY1-XG1KT0R3jyK-128">
          <mxGeometry relative="1" as="geometry" />
        </mxCell>
        <mxCell id="uXSJqWY1-XG1KT0R3jyK-126" value="found_mwe.append({&#39;id&#39;: row[1], &#39;leg_term&#39;: row[2].lower(), &#39;desc&#39;: row[3].lower(), &#39;pos_tag&#39;: row[4].lower(), &#39;term_root&#39;: row[5].lower()})" style="whiteSpace=wrap;html=1;" vertex="1" parent="1">
          <mxGeometry x="-240" y="1540" width="420" height="30" as="geometry" />
        </mxCell>
        <mxCell id="uXSJqWY1-XG1KT0R3jyK-128" value="mwe_arr_index.append({&#39;index&#39;: mwe_node[&#39;idx&#39;] + 1, &#39;length&#39;: len(slt)})" style="whiteSpace=wrap;html=1;" vertex="1" parent="1">
          <mxGeometry x="-240" y="1590.5" width="420" height="19.5" as="geometry" />
        </mxCell>
        <mxCell id="uXSJqWY1-XG1KT0R3jyK-130" value="Yes" style="text;html=1;align=center;verticalAlign=middle;resizable=0;points=[];autosize=1;strokeColor=none;fillColor=none;" vertex="1" parent="1">
          <mxGeometry x="-39" y="1414.5" width="40" height="30" as="geometry" />
        </mxCell>
        <mxCell id="uXSJqWY1-XG1KT0R3jyK-137" value="" style="edgeStyle=orthogonalEdgeStyle;rounded=0;orthogonalLoop=1;jettySize=auto;html=1;" edge="1" parent="1" source="uXSJqWY1-XG1KT0R3jyK-132" target="uXSJqWY1-XG1KT0R3jyK-136">
          <mxGeometry relative="1" as="geometry" />
        </mxCell>
        <mxCell id="uXSJqWY1-XG1KT0R3jyK-132" value="wrd_roots = con_wrd[mwe_node[&#39;idx&#39;] + 1][&#39;lemma&#39;].replace(&#39;[&#39;, &#39;&#39;).replace(&#39;]&#39;, &#39;&#39;).split(&#39;, &#39;)" style="whiteSpace=wrap;html=1;" vertex="1" parent="1">
          <mxGeometry x="-680" y="1380.87" width="250" height="32.75" as="geometry" />
        </mxCell>
        <mxCell id="uXSJqWY1-XG1KT0R3jyK-134" value="No" style="text;html=1;align=center;verticalAlign=middle;resizable=0;points=[];autosize=1;strokeColor=none;fillColor=none;" vertex="1" parent="1">
          <mxGeometry x="-410" y="1373" width="40" height="30" as="geometry" />
        </mxCell>
        <mxCell id="uXSJqWY1-XG1KT0R3jyK-142" value="" style="edgeStyle=orthogonalEdgeStyle;rounded=0;orthogonalLoop=1;jettySize=auto;html=1;" edge="1" parent="1" source="uXSJqWY1-XG1KT0R3jyK-136" target="uXSJqWY1-XG1KT0R3jyK-141">
          <mxGeometry relative="1" as="geometry" />
        </mxCell>
        <mxCell id="uXSJqWY1-XG1KT0R3jyK-157" value="" style="edgeStyle=orthogonalEdgeStyle;rounded=0;orthogonalLoop=1;jettySize=auto;html=1;" edge="1" parent="1" source="uXSJqWY1-XG1KT0R3jyK-136" target="uXSJqWY1-XG1KT0R3jyK-156">
          <mxGeometry relative="1" as="geometry" />
        </mxCell>
        <mxCell id="uXSJqWY1-XG1KT0R3jyK-136" value="wrd_root ==&amp;nbsp; last of wrd_roots&amp;nbsp;&amp;nbsp;" style="rhombus;whiteSpace=wrap;html=1;" vertex="1" parent="1">
          <mxGeometry x="-633.12" y="1450" width="156.25" height="90" as="geometry" />
        </mxCell>
        <mxCell id="uXSJqWY1-XG1KT0R3jyK-140" value="No" style="text;html=1;align=center;verticalAlign=middle;resizable=0;points=[];autosize=1;strokeColor=none;fillColor=none;" vertex="1" parent="1">
          <mxGeometry x="-565" y="1540" width="40" height="30" as="geometry" />
        </mxCell>
        <mxCell id="uXSJqWY1-XG1KT0R3jyK-150" style="edgeStyle=orthogonalEdgeStyle;rounded=0;orthogonalLoop=1;jettySize=auto;html=1;exitX=0.5;exitY=1;exitDx=0;exitDy=0;entryX=0.5;entryY=0;entryDx=0;entryDy=0;" edge="1" parent="1" source="uXSJqWY1-XG1KT0R3jyK-141" target="uXSJqWY1-XG1KT0R3jyK-144">
          <mxGeometry relative="1" as="geometry" />
        </mxCell>
        <mxCell id="uXSJqWY1-XG1KT0R3jyK-160" style="edgeStyle=orthogonalEdgeStyle;rounded=0;orthogonalLoop=1;jettySize=auto;html=1;exitX=1;exitY=0.5;exitDx=0;exitDy=0;entryX=0.5;entryY=0;entryDx=0;entryDy=0;" edge="1" parent="1" source="uXSJqWY1-XG1KT0R3jyK-141" target="uXSJqWY1-XG1KT0R3jyK-136">
          <mxGeometry relative="1" as="geometry">
            <Array as="points">
              <mxPoint x="-410" y="1620" />
              <mxPoint x="-410" y="1450" />
            </Array>
          </mxGeometry>
        </mxCell>
        <mxCell id="uXSJqWY1-XG1KT0R3jyK-141" value="wrd_root.split(&#39;+&#39;)[0].lower() == undes" style="rhombus;whiteSpace=wrap;html=1;" vertex="1" parent="1">
          <mxGeometry x="-671.56" y="1580" width="233.13" height="80" as="geometry" />
        </mxCell>
        <mxCell id="uXSJqWY1-XG1KT0R3jyK-143" value="" style="edgeStyle=orthogonalEdgeStyle;rounded=0;orthogonalLoop=1;jettySize=auto;html=1;" edge="1" parent="1" source="uXSJqWY1-XG1KT0R3jyK-144" target="uXSJqWY1-XG1KT0R3jyK-146">
          <mxGeometry relative="1" as="geometry" />
        </mxCell>
        <mxCell id="uXSJqWY1-XG1KT0R3jyK-144" value="con_wrd[mwe_node[&#39;idx&#39;] + 1][&#39;lemma&#39;] = &#39;[&#39;+&#39;_&#39;.join(res_mwe.split(&#39; &#39;)) + &#39;_&#39; + con_wrd[mwe_node[&#39;idx&#39;] + 1][&#39;lemma&#39;].replace(&#39;[&#39;, &#39;&#39;)" style="whiteSpace=wrap;html=1;" vertex="1" parent="1">
          <mxGeometry x="-764.99" y="1690" width="420" height="28.25" as="geometry" />
        </mxCell>
        <mxCell id="uXSJqWY1-XG1KT0R3jyK-145" value="" style="edgeStyle=orthogonalEdgeStyle;rounded=0;orthogonalLoop=1;jettySize=auto;html=1;" edge="1" parent="1" source="uXSJqWY1-XG1KT0R3jyK-146" target="uXSJqWY1-XG1KT0R3jyK-148">
          <mxGeometry relative="1" as="geometry" />
        </mxCell>
        <mxCell id="uXSJqWY1-XG1KT0R3jyK-146" value="con_wrd[mwe_node[&#39;idx&#39;] + 1][&#39;posTag&#39;] = posTag" style="whiteSpace=wrap;html=1;" vertex="1" parent="1">
          <mxGeometry x="-764.99" y="1740" width="420" height="20" as="geometry" />
        </mxCell>
        <mxCell id="uXSJqWY1-XG1KT0R3jyK-147" value="" style="edgeStyle=orthogonalEdgeStyle;rounded=0;orthogonalLoop=1;jettySize=auto;html=1;" edge="1" parent="1" source="uXSJqWY1-XG1KT0R3jyK-148" target="uXSJqWY1-XG1KT0R3jyK-149">
          <mxGeometry relative="1" as="geometry" />
        </mxCell>
        <mxCell id="uXSJqWY1-XG1KT0R3jyK-148" value="found_mwe.append({&#39;id&#39;: row[1], &#39;leg_term&#39;: row[2].lower(), &#39;desc&#39;: row[3].lower(), &#39;pos_tag&#39;: row[4].lower(), &#39;term_root&#39;: row[5].lower()})" style="whiteSpace=wrap;html=1;" vertex="1" parent="1">
          <mxGeometry x="-764.99" y="1780" width="420" height="30" as="geometry" />
        </mxCell>
        <mxCell id="uXSJqWY1-XG1KT0R3jyK-153" style="edgeStyle=orthogonalEdgeStyle;rounded=0;orthogonalLoop=1;jettySize=auto;html=1;exitX=0.5;exitY=1;exitDx=0;exitDy=0;entryX=0.5;entryY=0;entryDx=0;entryDy=0;" edge="1" parent="1" source="uXSJqWY1-XG1KT0R3jyK-149" target="uXSJqWY1-XG1KT0R3jyK-152">
          <mxGeometry relative="1" as="geometry" />
        </mxCell>
        <mxCell id="uXSJqWY1-XG1KT0R3jyK-149" value="mwe_arr_index.append({&#39;index&#39;: mwe_node[&#39;idx&#39;] + 1, &#39;length&#39;: len(slt)})" style="whiteSpace=wrap;html=1;" vertex="1" parent="1">
          <mxGeometry x="-764.99" y="1830" width="420" height="19.5" as="geometry" />
        </mxCell>
        <mxCell id="uXSJqWY1-XG1KT0R3jyK-151" value="Yes" style="text;html=1;align=center;verticalAlign=middle;resizable=0;points=[];autosize=1;strokeColor=none;fillColor=none;" vertex="1" parent="1">
          <mxGeometry x="-562" y="1660" width="40" height="30" as="geometry" />
        </mxCell>
        <mxCell id="uXSJqWY1-XG1KT0R3jyK-159" style="edgeStyle=orthogonalEdgeStyle;rounded=0;orthogonalLoop=1;jettySize=auto;html=1;exitX=0.5;exitY=1;exitDx=0;exitDy=0;entryX=0.5;entryY=1;entryDx=0;entryDy=0;" edge="1" parent="1" source="uXSJqWY1-XG1KT0R3jyK-152" target="uXSJqWY1-XG1KT0R3jyK-156">
          <mxGeometry relative="1" as="geometry">
            <mxPoint x="-770" y="1620" as="targetPoint" />
            <Array as="points">
              <mxPoint x="-555" y="1900" />
              <mxPoint x="-780" y="1900" />
            </Array>
          </mxGeometry>
        </mxCell>
        <mxCell id="uXSJqWY1-XG1KT0R3jyK-152" value="break" style="whiteSpace=wrap;html=1;" vertex="1" parent="1">
          <mxGeometry x="-577.49" y="1870.5" width="44.99" height="19.5" as="geometry" />
        </mxCell>
        <mxCell id="uXSJqWY1-XG1KT0R3jyK-164" style="edgeStyle=orthogonalEdgeStyle;rounded=0;orthogonalLoop=1;jettySize=auto;html=1;exitX=0;exitY=0.5;exitDx=0;exitDy=0;" edge="1" parent="1" source="uXSJqWY1-XG1KT0R3jyK-156" target="uXSJqWY1-XG1KT0R3jyK-162">
          <mxGeometry relative="1" as="geometry">
            <mxPoint x="-899.9899999999998" y="1499.9999999999998" as="sourcePoint" />
          </mxGeometry>
        </mxCell>
        <mxCell id="uXSJqWY1-XG1KT0R3jyK-156" value="pure_con_wrd = []" style="whiteSpace=wrap;html=1;" vertex="1" parent="1">
          <mxGeometry x="-839.99" y="1482.5" width="120" height="25" as="geometry" />
        </mxCell>
        <mxCell id="uXSJqWY1-XG1KT0R3jyK-158" value="Yes" style="text;html=1;align=center;verticalAlign=middle;resizable=0;points=[];autosize=1;strokeColor=none;fillColor=none;" vertex="1" parent="1">
          <mxGeometry x="-700" y="1470" width="40" height="30" as="geometry" />
        </mxCell>
        <mxCell id="uXSJqWY1-XG1KT0R3jyK-161" value="No" style="text;html=1;align=center;verticalAlign=middle;resizable=0;points=[];autosize=1;strokeColor=none;fillColor=none;" vertex="1" parent="1">
          <mxGeometry x="-444.43" y="1594.5" width="40" height="30" as="geometry" />
        </mxCell>
        <mxCell id="uXSJqWY1-XG1KT0R3jyK-166" value="" style="edgeStyle=orthogonalEdgeStyle;rounded=0;orthogonalLoop=1;jettySize=auto;html=1;" edge="1" parent="1" source="uXSJqWY1-XG1KT0R3jyK-162" target="uXSJqWY1-XG1KT0R3jyK-165">
          <mxGeometry relative="1" as="geometry" />
        </mxCell>
        <mxCell id="uXSJqWY1-XG1KT0R3jyK-200" style="edgeStyle=orthogonalEdgeStyle;rounded=0;orthogonalLoop=1;jettySize=auto;html=1;exitX=0;exitY=0.5;exitDx=0;exitDy=0;entryX=1;entryY=0.5;entryDx=0;entryDy=0;entryPerimeter=0;" edge="1" parent="1" source="uXSJqWY1-XG1KT0R3jyK-162" target="uXSJqWY1-XG1KT0R3jyK-199">
          <mxGeometry relative="1" as="geometry" />
        </mxCell>
        <mxCell id="uXSJqWY1-XG1KT0R3jyK-162" value="(i, cw) == (len(con_wrd) - 1, last of con_wrd&amp;nbsp;" style="rhombus;whiteSpace=wrap;html=1;" vertex="1" parent="1">
          <mxGeometry x="-1277" y="1535" width="330" height="40" as="geometry" />
        </mxCell>
        <mxCell id="uXSJqWY1-XG1KT0R3jyK-172" value="" style="edgeStyle=orthogonalEdgeStyle;rounded=0;orthogonalLoop=1;jettySize=auto;html=1;" edge="1" parent="1" source="uXSJqWY1-XG1KT0R3jyK-165" target="uXSJqWY1-XG1KT0R3jyK-171">
          <mxGeometry relative="1" as="geometry" />
        </mxCell>
        <mxCell id="uXSJqWY1-XG1KT0R3jyK-165" value="exist = 0" style="whiteSpace=wrap;html=1;" vertex="1" parent="1">
          <mxGeometry x="-1172" y="1609.5" width="120" height="20" as="geometry" />
        </mxCell>
        <mxCell id="uXSJqWY1-XG1KT0R3jyK-167" value="No" style="text;html=1;align=center;verticalAlign=middle;resizable=0;points=[];autosize=1;strokeColor=none;fillColor=none;" vertex="1" parent="1">
          <mxGeometry x="-1121" y="1575" width="40" height="30" as="geometry" />
        </mxCell>
        <mxCell id="uXSJqWY1-XG1KT0R3jyK-177" value="" style="edgeStyle=orthogonalEdgeStyle;rounded=0;orthogonalLoop=1;jettySize=auto;html=1;" edge="1" parent="1" source="uXSJqWY1-XG1KT0R3jyK-171" target="uXSJqWY1-XG1KT0R3jyK-176">
          <mxGeometry relative="1" as="geometry" />
        </mxCell>
        <mxCell id="uXSJqWY1-XG1KT0R3jyK-190" style="edgeStyle=orthogonalEdgeStyle;rounded=0;orthogonalLoop=1;jettySize=auto;html=1;exitX=1;exitY=0.5;exitDx=0;exitDy=0;entryX=0.5;entryY=0;entryDx=0;entryDy=0;" edge="1" parent="1" source="uXSJqWY1-XG1KT0R3jyK-171" target="uXSJqWY1-XG1KT0R3jyK-185">
          <mxGeometry relative="1" as="geometry" />
        </mxCell>
        <mxCell id="uXSJqWY1-XG1KT0R3jyK-171" value="mwe_index == last of mwe_arr_index" style="rhombus;whiteSpace=wrap;html=1;" vertex="1" parent="1">
          <mxGeometry x="-1194.5" y="1659" width="165" height="80" as="geometry" />
        </mxCell>
        <mxCell id="uXSJqWY1-XG1KT0R3jyK-175" value="No" style="text;html=1;align=center;verticalAlign=middle;resizable=0;points=[];autosize=1;strokeColor=none;fillColor=none;" vertex="1" parent="1">
          <mxGeometry x="-1121" y="1739" width="40" height="30" as="geometry" />
        </mxCell>
        <mxCell id="uXSJqWY1-XG1KT0R3jyK-179" value="" style="edgeStyle=orthogonalEdgeStyle;rounded=0;orthogonalLoop=1;jettySize=auto;html=1;" edge="1" parent="1" source="uXSJqWY1-XG1KT0R3jyK-176" target="uXSJqWY1-XG1KT0R3jyK-178">
          <mxGeometry relative="1" as="geometry" />
        </mxCell>
        <mxCell id="uXSJqWY1-XG1KT0R3jyK-182" style="edgeStyle=orthogonalEdgeStyle;rounded=0;orthogonalLoop=1;jettySize=auto;html=1;exitX=0;exitY=0.5;exitDx=0;exitDy=0;" edge="1" parent="1" source="uXSJqWY1-XG1KT0R3jyK-176">
          <mxGeometry relative="1" as="geometry">
            <mxPoint x="-1317" y="1795" as="targetPoint" />
          </mxGeometry>
        </mxCell>
        <mxCell id="uXSJqWY1-XG1KT0R3jyK-176" value="i in range(mwe_index[&#39;index&#39;] - mwe_index[&#39;length&#39;],mwe_index[&#39;index&#39;])" style="rhombus;whiteSpace=wrap;html=1;" vertex="1" parent="1">
          <mxGeometry x="-1289.5" y="1772" width="355" height="56" as="geometry" />
        </mxCell>
        <mxCell id="uXSJqWY1-XG1KT0R3jyK-181" style="edgeStyle=orthogonalEdgeStyle;rounded=0;orthogonalLoop=1;jettySize=auto;html=1;exitX=0.5;exitY=1;exitDx=0;exitDy=0;entryX=0.5;entryY=0;entryDx=0;entryDy=0;" edge="1" parent="1" source="uXSJqWY1-XG1KT0R3jyK-178" target="uXSJqWY1-XG1KT0R3jyK-171">
          <mxGeometry relative="1" as="geometry">
            <Array as="points">
              <mxPoint x="-1112" y="1904" />
              <mxPoint x="-1317" y="1904" />
              <mxPoint x="-1317" y="1659" />
            </Array>
          </mxGeometry>
        </mxCell>
        <mxCell id="uXSJqWY1-XG1KT0R3jyK-178" value="exist = 1" style="whiteSpace=wrap;html=1;" vertex="1" parent="1">
          <mxGeometry x="-1172" y="1865" width="120" height="19" as="geometry" />
        </mxCell>
        <mxCell id="uXSJqWY1-XG1KT0R3jyK-180" value="Yes" style="text;html=1;align=center;verticalAlign=middle;resizable=0;points=[];autosize=1;strokeColor=none;fillColor=none;" vertex="1" parent="1">
          <mxGeometry x="-1119" y="1829.75" width="40" height="30" as="geometry" />
        </mxCell>
        <mxCell id="uXSJqWY1-XG1KT0R3jyK-183" value="Yes" style="text;html=1;align=center;verticalAlign=middle;resizable=0;points=[];autosize=1;strokeColor=none;fillColor=none;" vertex="1" parent="1">
          <mxGeometry x="-1320" y="1777" width="40" height="30" as="geometry" />
        </mxCell>
        <mxCell id="uXSJqWY1-XG1KT0R3jyK-194" style="edgeStyle=orthogonalEdgeStyle;rounded=0;orthogonalLoop=1;jettySize=auto;html=1;exitX=0.5;exitY=1;exitDx=0;exitDy=0;entryX=0.5;entryY=0;entryDx=0;entryDy=0;" edge="1" parent="1" source="uXSJqWY1-XG1KT0R3jyK-185" target="uXSJqWY1-XG1KT0R3jyK-193">
          <mxGeometry relative="1" as="geometry" />
        </mxCell>
        <mxCell id="uXSJqWY1-XG1KT0R3jyK-197" style="edgeStyle=orthogonalEdgeStyle;rounded=0;orthogonalLoop=1;jettySize=auto;html=1;exitX=1;exitY=0.5;exitDx=0;exitDy=0;" edge="1" parent="1" source="uXSJqWY1-XG1KT0R3jyK-185">
          <mxGeometry relative="1" as="geometry">
            <mxPoint x="-800" y="1738" as="targetPoint" />
          </mxGeometry>
        </mxCell>
        <mxCell id="uXSJqWY1-XG1KT0R3jyK-185" value="exist == 0" style="rhombus;whiteSpace=wrap;html=1;" vertex="1" parent="1">
          <mxGeometry x="-960" y="1718.25" width="125" height="40" as="geometry" />
        </mxCell>
        <mxCell id="uXSJqWY1-XG1KT0R3jyK-191" value="Yes" style="text;html=1;align=center;verticalAlign=middle;resizable=0;points=[];autosize=1;strokeColor=none;fillColor=none;" vertex="1" parent="1">
          <mxGeometry x="-986" y="1676" width="40" height="30" as="geometry" />
        </mxCell>
        <mxCell id="uXSJqWY1-XG1KT0R3jyK-196" style="edgeStyle=orthogonalEdgeStyle;rounded=0;orthogonalLoop=1;jettySize=auto;html=1;exitX=0.5;exitY=1;exitDx=0;exitDy=0;entryX=0.5;entryY=0;entryDx=0;entryDy=0;" edge="1" parent="1" source="uXSJqWY1-XG1KT0R3jyK-193" target="uXSJqWY1-XG1KT0R3jyK-162">
          <mxGeometry relative="1" as="geometry">
            <Array as="points">
              <mxPoint x="-897" y="1860" />
              <mxPoint x="-800" y="1860" />
              <mxPoint x="-800" y="1535" />
            </Array>
          </mxGeometry>
        </mxCell>
        <mxCell id="uXSJqWY1-XG1KT0R3jyK-193" value="pure_con_wrd.append(cw)" style="rounded=0;whiteSpace=wrap;html=1;" vertex="1" parent="1">
          <mxGeometry x="-972.5" y="1810" width="150" height="30" as="geometry" />
        </mxCell>
        <mxCell id="uXSJqWY1-XG1KT0R3jyK-195" value="Yes" style="text;html=1;align=center;verticalAlign=middle;resizable=0;points=[];autosize=1;strokeColor=none;fillColor=none;" vertex="1" parent="1">
          <mxGeometry x="-905" y="1769" width="40" height="30" as="geometry" />
        </mxCell>
        <mxCell id="uXSJqWY1-XG1KT0R3jyK-198" value="No" style="text;html=1;align=center;verticalAlign=middle;resizable=0;points=[];autosize=1;strokeColor=none;fillColor=none;" vertex="1" parent="1">
          <mxGeometry x="-842" y="1714" width="40" height="30" as="geometry" />
        </mxCell>
        <mxCell id="uXSJqWY1-XG1KT0R3jyK-199" value="return&amp;nbsp;&lt;br&gt;{&#39;found_mwe&#39;: found_mwe, &lt;br&gt;&#39;word_list&#39;: pure_con_wrd}" style="shape=mxgraph.flowchart.terminator;strokeWidth=2;gradientColor=none;gradientDirection=north;fontStyle=0;html=1;" vertex="1" parent="1">
          <mxGeometry x="-1517" y="1525" width="200" height="60" as="geometry" />
        </mxCell>
        <mxCell id="uXSJqWY1-XG1KT0R3jyK-201" value="Yes" style="text;html=1;align=center;verticalAlign=middle;resizable=0;points=[];autosize=1;strokeColor=none;fillColor=none;" vertex="1" parent="1">
          <mxGeometry x="-1317" y="1530" width="40" height="30" as="geometry" />
        </mxCell>
        <mxCell id="uXSJqWY1-XG1KT0R3jyK-204" style="edgeStyle=orthogonalEdgeStyle;rounded=0;orthogonalLoop=1;jettySize=auto;html=1;entryX=0.5;entryY=0;entryDx=0;entryDy=0;" edge="1" parent="1" source="uXSJqWY1-XG1KT0R3jyK-202" target="uXSJqWY1-XG1KT0R3jyK-203">
          <mxGeometry relative="1" as="geometry" />
        </mxCell>
        <mxCell id="uXSJqWY1-XG1KT0R3jyK-202" value="mwe_trie.search" style="shape=mxgraph.flowchart.terminator;strokeWidth=2;gradientColor=none;gradientDirection=north;fontStyle=0;html=1;" vertex="1" parent="1">
          <mxGeometry x="-633.12" y="180" width="120" height="30" as="geometry" />
        </mxCell>
        <mxCell id="uXSJqWY1-XG1KT0R3jyK-211" style="edgeStyle=orthogonalEdgeStyle;rounded=0;orthogonalLoop=1;jettySize=auto;html=1;exitX=0.5;exitY=1;exitDx=0;exitDy=0;entryX=0.5;entryY=0;entryDx=0;entryDy=0;" edge="1" parent="1" source="uXSJqWY1-XG1KT0R3jyK-203" target="uXSJqWY1-XG1KT0R3jyK-210">
          <mxGeometry relative="1" as="geometry" />
        </mxCell>
        <mxCell id="uXSJqWY1-XG1KT0R3jyK-203" value="node = self.root, t_node_list = []&lt;br&gt;i = 0" style="shape=process;whiteSpace=wrap;html=1;backgroundOutline=1;" vertex="1" parent="1">
          <mxGeometry x="-633.12" y="230" width="120" height="50" as="geometry" />
        </mxCell>
        <mxCell id="uXSJqWY1-XG1KT0R3jyK-214" value="" style="edgeStyle=orthogonalEdgeStyle;rounded=0;orthogonalLoop=1;jettySize=auto;html=1;" edge="1" parent="1" source="uXSJqWY1-XG1KT0R3jyK-207" target="uXSJqWY1-XG1KT0R3jyK-213">
          <mxGeometry relative="1" as="geometry" />
        </mxCell>
        <mxCell id="uXSJqWY1-XG1KT0R3jyK-207" value="i &amp;lt; len(words)" style="rhombus;whiteSpace=wrap;html=1;" vertex="1" parent="1">
          <mxGeometry x="-622.5" y="340" width="97.5" height="50" as="geometry" />
        </mxCell>
        <mxCell id="uXSJqWY1-XG1KT0R3jyK-212" style="edgeStyle=orthogonalEdgeStyle;rounded=0;orthogonalLoop=1;jettySize=auto;html=1;exitX=0.5;exitY=1;exitDx=0;exitDy=0;entryX=0.5;entryY=0;entryDx=0;entryDy=0;" edge="1" parent="1" source="uXSJqWY1-XG1KT0R3jyK-210" target="uXSJqWY1-XG1KT0R3jyK-207">
          <mxGeometry relative="1" as="geometry" />
        </mxCell>
        <mxCell id="uXSJqWY1-XG1KT0R3jyK-210" value="self, words" style="shape=parallelogram;perimeter=parallelogramPerimeter;whiteSpace=wrap;html=1;fixedSize=1;" vertex="1" parent="1">
          <mxGeometry x="-633.12" y="300" width="120" height="20" as="geometry" />
        </mxCell>
        <mxCell id="uXSJqWY1-XG1KT0R3jyK-217" value="" style="edgeStyle=orthogonalEdgeStyle;rounded=0;orthogonalLoop=1;jettySize=auto;html=1;" edge="1" parent="1" source="uXSJqWY1-XG1KT0R3jyK-213" target="uXSJqWY1-XG1KT0R3jyK-216">
          <mxGeometry relative="1" as="geometry" />
        </mxCell>
        <mxCell id="uXSJqWY1-XG1KT0R3jyK-213" value="x_word = words[i].lower().strip()" style="whiteSpace=wrap;html=1;" vertex="1" parent="1">
          <mxGeometry x="-476.87" y="347.5" width="126.25" height="35" as="geometry" />
        </mxCell>
        <mxCell id="uXSJqWY1-XG1KT0R3jyK-215" value="Yes" style="text;html=1;align=center;verticalAlign=middle;resizable=0;points=[];autosize=1;strokeColor=none;fillColor=none;" vertex="1" parent="1">
          <mxGeometry x="-525" y="340" width="40" height="30" as="geometry" />
        </mxCell>
        <mxCell id="uXSJqWY1-XG1KT0R3jyK-219" value="" style="edgeStyle=orthogonalEdgeStyle;rounded=0;orthogonalLoop=1;jettySize=auto;html=1;" edge="1" parent="1" source="uXSJqWY1-XG1KT0R3jyK-216" target="uXSJqWY1-XG1KT0R3jyK-218">
          <mxGeometry relative="1" as="geometry" />
        </mxCell>
        <mxCell id="uXSJqWY1-XG1KT0R3jyK-224" value="" style="edgeStyle=orthogonalEdgeStyle;rounded=0;orthogonalLoop=1;jettySize=auto;html=1;" edge="1" parent="1" source="uXSJqWY1-XG1KT0R3jyK-216" target="uXSJqWY1-XG1KT0R3jyK-223">
          <mxGeometry relative="1" as="geometry" />
        </mxCell>
        <mxCell id="uXSJqWY1-XG1KT0R3jyK-216" value="x_word in node.children" style="rhombus;whiteSpace=wrap;html=1;" vertex="1" parent="1">
          <mxGeometry x="-468.75" y="414" width="110.01" height="66" as="geometry" />
        </mxCell>
        <mxCell id="uXSJqWY1-XG1KT0R3jyK-222" value="" style="edgeStyle=orthogonalEdgeStyle;rounded=0;orthogonalLoop=1;jettySize=auto;html=1;" edge="1" parent="1" source="uXSJqWY1-XG1KT0R3jyK-218" target="uXSJqWY1-XG1KT0R3jyK-221">
          <mxGeometry relative="1" as="geometry" />
        </mxCell>
        <mxCell id="uXSJqWY1-XG1KT0R3jyK-218" value="node = node.children[x_word]" style="whiteSpace=wrap;html=1;" vertex="1" parent="1">
          <mxGeometry x="-473.74" y="510" width="120" height="30" as="geometry" />
        </mxCell>
        <mxCell id="uXSJqWY1-XG1KT0R3jyK-220" value="Yes" style="text;html=1;align=center;verticalAlign=middle;resizable=0;points=[];autosize=1;strokeColor=none;fillColor=none;" vertex="1" parent="1">
          <mxGeometry x="-422" y="478" width="40" height="30" as="geometry" />
        </mxCell>
        <mxCell id="uXSJqWY1-XG1KT0R3jyK-221" value="i += 1" style="whiteSpace=wrap;html=1;" vertex="1" parent="1">
          <mxGeometry x="-473.74" y="560" width="120" height="20" as="geometry" />
        </mxCell>
        <mxCell id="uXSJqWY1-XG1KT0R3jyK-223" value="" style="whiteSpace=wrap;html=1;" vertex="1" parent="1">
          <mxGeometry x="-633.12" y="430.5" width="120" height="33" as="geometry" />
        </mxCell>
        <mxCell id="uXSJqWY1-XG1KT0R3jyK-225" value="No" style="text;html=1;align=center;verticalAlign=middle;resizable=0;points=[];autosize=1;strokeColor=none;fillColor=none;" vertex="1" parent="1">
          <mxGeometry x="-504.75" y="423" width="40" height="30" as="geometry" />
        </mxCell>
      </root>
    </mxGraphModel>
  </diagram>
</mxfile>
